# xmcd
#
# Track frame offsets: 
#        150
#        13040
#        29280
#        46745
#        55555
#        63938
#        83883
#        93765
#        103838
#        118478
#        130163
#        140208
#        149958
#        161320
#
# Disc length: 2261 seconds
#
# Revision: 1
# Processed by: cddbd v1.5.1PL0 Copyright (c) Steve Scherf et al.
# Submitted via: ExactAudioCopy v0.95a3
#
DISCID=c308d30e
DTITLE=Various Artist - Country Christmas
DYEAR=1900
DGENRE=Country
TTITLE0=Gene Autry/Rudolph The Red Nosed Reindeer
TTITLE1=Kate Smith/White Christmas
TTITLE2=Glen Campbell/The Little Drummer
TTITLE3=Gene Autry/Jingle Bells
TTITLE4=Kitty Wells/Santa's Is On His Way
TTITLE5=Glen Campbell/The Christmas Song
TTITLE6=Kitty Wells/Dasher With The Light Upon His Tail
TTITLE7=Gene Autry/Santa Claus Is Coming To Town
TTITLE8=Kenny Rogers/All God's Lonely Children
TTITLE9=Glen Campbell/Silent Night
TTITLE10=Gene Autry/Here Comes Santa Claus
TTITLE11=Kate Smith/Joy To The World 
TTITLE12=Kitty Wells/Ole Kris Kringle 
TTITLE13=Gene Autry/Frosty The Snowman
EXTD=ID3G: 2
EXTT0=
EXTT1=
EXTT2=
EXTT3=
EXTT4=
EXTT5=
EXTT6=
EXTT7=
EXTT8=
EXTT9=
EXTT10=
EXTT11=
EXTT12=
EXTT13=
PLAYORDER=
